<svg version="1.1" id="Layer_1" xmlns="http://www.w3.org/2000/svg" xmlns:xlink="http://www.w3.org/1999/xlink" x="0px" y="0px"
   viewBox="156 346 300 100" enable-background="new 156 346 300 100" xml:space="preserve">
<g id="Content">
  <g>
      <linearGradient id="SVGID_1_" gradientUnits="userSpaceOnUse" x1="349.974" y1="638.2269" x2="349.974" y2="737.4634" gradientTransform="matrix(0.8793 0 0 -0.8793 0 1000.6578)">
      <stop  offset="0" style="stop-color:#005AFF"/>
      <stop  offset="3.613961e-02" style="stop-color:#005DFF"/>
      <stop  offset="0.3914" style="stop-color:#0075FF"/>
      <stop  offset="0.7215" style="stop-color:#0083FF"/>
      <stop  offset="1" style="stop-color:#0088FF"/>
    </linearGradient>
    <path fill="url(#SVGID_1_)" d="M351.3,385.7h-3.6c0-16.4-13.3-29.9-30.1-29.9v-3.6C336.1,352.2,351.3,367.2,351.3,385.7z
       M317.6,359.4c14.7,0,26.5,11.6,26.5,26.3h-3.6c0-12.6-10.3-22.8-22.9-22.8L317.6,359.4L317.6,359.4z M317.6,366.6
      c10.5,0,19.3,8.6,19.3,19.1h-3.6c0-8.4-6.9-15.6-15.7-15.6L317.6,366.6L317.6,366.6z M329.8,385.9c0-6.6-5.4-12-12-12h-41.6
      c-6.6,0-12,5.4-12,12V428c0,6.6,5.4,12,12,12h41.6c6.6,0,12-5.4,12-12V385.9z"/>
    <g>
      <path fill="#404040" d="M160.3,400.4h3.4v2.4c1.3-1.3,2.4-2.6,4.7-2.6c2.1,0,3.7,1.1,4.5,2.6c1.2-1.6,2.7-2.6,5-2.6
        c3.3,0,5.2,2.1,5.2,5.7v9.6h-3.4V407c0-2.4-1.1-3.7-3.1-3.7c-1.9,0-3.2,1.3-3.2,3.7v8.5H170V407c0-2.3-1.2-3.6-3.1-3.6
        c-1.9,0-3.2,1.4-3.2,3.7v8.5h-3.4V400.4z"/>
      <path fill="#404040" d="M186.4,408.1L186.4,408.1c0-4.3,3.4-7.9,8-7.9c4.6,0,8,3.5,8,7.8v0c0,4.2-3.4,7.8-8,7.8
        C189.8,415.9,186.4,412.4,186.4,408.1z M199,408.1L199,408.1c0-2.7-2-4.9-4.7-4.9c-2.7,0-4.6,2.1-4.6,4.8v0c0,2.6,2,4.8,4.6,4.8
        C197.2,412.9,199,410.7,199,408.1z"/>
      <path fill="#404040" d="M209.1,413.2v2.4h-3.8V395h3.8v8c0.8-1.6,2.5-2.8,4.9-2.8c3.5,0,6.9,2.8,6.9,7.8v0c0,5-3.3,7.8-6.9,7.8
        C211.6,415.8,209.9,414.6,209.1,413.2z M217.5,408L217.5,408c0-2.9-2.1-4.8-4.4-4.8s-4.5,1.9-4.5,4.8v0c0,2.9,2.1,4.8,4.5,4.8
        C215.5,412.8,217.5,411,217.5,408z"/>
      <path fill="#404040" d="M224.2,395h3.8v3.4h-3.8V395z M224.2,400.4h3.8v15.1h-3.8V400.4z"/>
      <path fill="#404040" d="M232.2,395h3.4v20.6h-3.4V395z"/>
      <path fill="#404040" d="M239,408.1L239,408.1c0-4.3,3.1-7.9,7.4-7.9c4.8,0,7.2,3.8,7.2,8.1c0,0.3,0,0.5,0,1h-11
        c0.4,2.5,2.1,3.8,4.3,3.8c1.7,0,2.9-0.6,4.1-1.8l2,1.8c-1.4,1.7-3.4,2.8-6.2,2.8C242.4,415.9,239,412.7,239,408.1z M250.1,406.7
        c-0.2-2.1-1.5-4-3.8-4c-2.1,0-3.6,1.9-3.9,4H250.1z"/>
    </g>
    <g>
      <path fill="#FFFFFF" d="M281,415.6v-1.9c-1.3,1.2-2.5,2.1-4.8,2.1c-2.9,0-5.3-1.6-5.3-4.6v0c0-3.3,2.5-4.9,6-4.9
        c1.8,0,2.8,0.3,4.1,0.6v-0.3c0-2.1-1.3-3.2-3.7-3.2c-1.7,0-2.9,0.4-4.3,0.9l-0.9-2.7c1.6-0.8,3.3-1.3,5.7-1.3
        c4.4,0,6.6,2.3,6.6,6.3v9H281z M281,409.2c-0.8-0.3-2-0.6-3.4-0.6c-2.1,0-3.4,0.9-3.4,2.3v0c0,1.4,1.2,2.2,2.8,2.2
        c2.3,0,3.9-1.3,3.9-3.2V409.2z"/>
      <path fill="#FFFFFF" d="M288.6,400.4h3.4v2.6c0.8-1.6,2.7-2.8,5.1-2.8c3.5,0,7.1,2.8,7.1,7.8v0c0,5-3.5,7.8-7.1,7.8
        c-2.5,0-4.3-1.3-5.1-2.6v7h-3.4V400.4z M300.4,408L300.4,408c0-2.9-1.9-4.8-4.2-4.8s-4.2,1.9-4.2,4.8v0c0,2.9,1.9,4.8,4.2,4.8
        C298.5,412.8,300.4,411,300.4,408z"/>
      <path fill="#FFFFFF" d="M307.5,400.4h3.4v2.6c1.3-1.6,2.7-2.8,5.1-2.8c3.5,0,7.1,2.8,7.1,7.8v0c0,5-3.5,7.8-7.1,7.8
        c-2.5,0-3.9-1.3-5.1-2.6v7h-3.4V400.4z M319.3,408L319.3,408c0-2.9-1.9-4.8-4.2-4.8s-4.2,1.9-4.2,4.8v0c0,2.9,1.9,4.8,4.2,4.8
        C317.5,412.8,319.3,411,319.3,408z"/>
    </g>
    <g>
      <path fill="#404040" d="M340.3,411.4v-8h-1.7v-2.9h1.7v-4.2h3.4v4.2h4.2v2.9h-4.2v7.4c0,1.3,0.8,1.9,2,1.9c0.8,0,1.4-0.2,2.2-0.5
        v2.8c-0.8,0.5-1.9,0.8-3.2,0.8C342.2,415.8,340.3,414.6,340.3,411.4z"/>
      <path fill="#404040" d="M351.2,400.4h3.4v3.4c0.8-2.2,2.9-3.8,5.5-3.7v3.6h-0.3c-3,0-5.2,2-5.2,6v5.8h-3.4V400.4z"/>
      <path fill="#404040" d="M372.3,415.6v-1.9c-1.3,1.2-2.5,2.1-4.8,2.1c-2.9,0-5.3-1.6-5.3-4.6v0c0-3.3,2.5-4.9,6-4.9
        c1.8,0,2.8,0.3,4.1,0.6v-0.3c0-2.1-1.3-3.2-3.7-3.2c-1.7,0-2.9,0.4-4.3,0.9l-0.9-2.7c1.6-0.8,3.3-1.3,5.7-1.3
        c4.4,0,6.6,2.3,6.6,6.3v9H372.3z M372.3,409.2c-0.8-0.3-2-0.6-3.4-0.6c-2.1,0-3.4,0.9-3.4,2.3v0c0,1.4,1.2,2.2,2.8,2.2
        c2.3,0,3.9-1.3,3.9-3.2V409.2z"/>
      <path fill="#404040" d="M379,408.1L379,408.1c0-4.3,3.2-7.9,7.7-7.9c2.9,0,4.5,1.1,5.9,2.6l-2.1,2.3c-1.1-1.1-2.1-1.9-3.9-1.9
        c-2.5,0-4.3,2.1-4.3,4.8v0c0,2.6,1.8,4.8,4.5,4.8c1.6,0,2.8-0.8,3.9-1.9l2.1,2.1c-1.5,1.6-3.2,2.8-6.1,2.8
        C382.2,415.9,379,412.4,379,408.1z"/>
      <path fill="#404040" d="M395.8,395h3.4v12.2l6.3-6.7h4.2l-6,6.2l6.1,9h-4l-4.6-6.5l-2.1,2.1v4.4h-3.4V395z"/>
      <path fill="#404040" d="M412.6,395h3.4v3.4h-3.4V395z M412.6,400.4h3.4v15.1h-3.4V400.4z"/>
      <path fill="#404040" d="M420.6,400.4h3.4v2.4c0.8-1.4,2.4-2.6,4.7-2.6c3.4,0,5.4,2.3,5.4,5.8v9.6h-3.4V407c0-2.3-1.2-3.7-3.3-3.7
        c-2,0-3.4,1.4-3.4,3.7v8.5h-3.4V400.4z"/>
      <path fill="#404040" d="M438.1,418.3l1.3-2.6c1.6,1,3.2,1.6,5.2,1.6c3.1,0,4.6-1.6,4.6-4.6v-1.2c-0.8,1.6-2.6,2.7-5.1,2.7
        c-3.5,0-6.6-2.6-6.6-7v0c0-4.4,3.2-7,6.7-7c2.5,0,4.2,1.2,5.1,2.6v-2.3h3.8v12c0,2.5-0.8,4.4-2,5.6c-1.3,1.3-3.5,2-6.2,2
        C442.4,420.1,440,419.5,438.1,418.3z M449.6,407.3L449.6,407.3c0-2.5-2.1-4.2-4.5-4.2s-4.3,1.6-4.3,4.1v0c0,2.5,2,4.2,4.3,4.2
        C447.5,411.4,449.6,409.7,449.6,407.3z"/>
    </g>
  </g>
</g>
<g id="Guides">
</g>
<g id="FPO">
</g>
</svg>
