<?xml version="1.0" encoding="utf-8"?>
<!-- Generator: Adobe Illustrator 17.1.0, SVG Export Plug-In . SVG Version: 6.00 Build 0)  -->
<!DOCTYPE svg PUBLIC "-//W3C//DTD SVG 1.1//EN" "http://www.w3.org/Graphics/SVG/1.1/DTD/svg11.dtd">
<svg version="1.1" xmlns="http://www.w3.org/2000/svg" xmlns:xlink="http://www.w3.org/1999/xlink" x="0px" y="0px"
	 viewBox="0 0 696 208.7" enable-background="new 0 0 696 208.7" xml:space="preserve">
<g id="Content">
	<g>
		<linearGradient id="SVGID_1_" gradientUnits="userSpaceOnUse" x1="350.5684" y1="207.5039" x2="350.5684" y2="-1.788284e-04">
			<stop  offset="0" style="stop-color:#005AFF"/>
			<stop  offset="3.613961e-02" style="stop-color:#005DFF"/>
			<stop  offset="0.3914" style="stop-color:#0075FF"/>
			<stop  offset="0.7215" style="stop-color:#0083FF"/>
			<stop  offset="1" style="stop-color:#0088FF"/>
		</linearGradient>
		<path fill="url(#SVGID_1_)" d="M454.1,79.7h-8.6c0-39-31.6-71.2-71.6-71.2V0C418,0,454.1,35.7,454.1,79.7z M374,17.1
			c35,0,63,27.6,63,62.6h-8.6c0-30-24.5-54.1-54.5-54.1V17.1z M374,34.2c25,0,45.9,20.5,45.9,45.5h-8.6c0-20-16.4-37-37.4-37V34.2z
			 M403,80.2c0-15.7-12.8-28.5-28.5-28.5h-99c-15.7,0-28.5,12.8-28.5,28.5v100c0,15.7,12.8,28.5,28.5,28.5h99
			c15.7,0,28.5-12.8,28.5-28.5V80.2z"/>
		<g>
			<path fill="#404040" d="M0,114.7h8v5.6c3-3.2,5.6-6.1,11.1-6.1c5.1,0,8.8,2.5,10.7,6.3c2.9-3.8,6.5-6.3,11.9-6.3
				c7.8,0,12.3,4.9,12.3,13.6v22.9h-8v-20.4c0-5.7-2.7-8.7-7.3-8.7c-4.5,0-7.7,3.1-7.7,8.8v20.3h-8v-20.5c0-5.5-2.8-8.6-7.3-8.6
				S8,125,8,130.5v20.2H0V114.7z"/>
			<path fill="#404040" d="M62,132.9v-0.1c0-10.2,8.1-18.6,19-18.6c10.9,0,19,8.3,19,18.5v0.1c0,10.1-8.1,18.6-19.1,18.6
				C70,151.4,62,143.1,62,132.9z M92,132.9v-0.1c0-6.3-4.7-11.5-11.1-11.5c-6.5,0-10.9,5.1-10.9,11.3v0.1c0,6.2,4.7,11.5,11,11.5
				C87.6,144.3,92,139.1,92,132.9z"/>
			<path fill="#404040" d="M116,145v5.7h-9v-49h9v19.1c2-3.7,6-6.7,11.7-6.7c8.4,0,16.3,6.7,16.3,18.5v0.1
				c0,11.8-7.8,18.5-16.3,18.5C121.9,151.3,118,148.3,116,145z M136,132.8v-0.1c0-6.9-4.9-11.4-10.4-11.4c-5.5,0-10.6,4.6-10.6,11.4
				v0.1c0,6.9,5.1,11.4,10.6,11.4C131.2,144.2,136,139.8,136,132.8z"/>
			<path fill="#404040" d="M152,101.7h9v8h-9V101.7z M152,114.7h9v36h-9V114.7z"/>
			<path fill="#404040" d="M171,101.7h8v49h-8V101.7z"/>
			<path fill="#404040" d="M187,132.9v-0.1c0-10.2,7.3-18.6,17.5-18.6c11.3,0,17.1,9,17.1,19.2c0,0.7,0,1.3-0.1,2.3h-26.2
				c0.9,6,5,9,10.3,9c4,0,6.8-1.5,9.7-4.3l4.8,4.2c-3.4,4.1-8.2,6.7-14.7,6.7C195.1,151.4,187,143.9,187,132.9z M213.6,129.7
				c-0.5-5-3.6-9.4-9-9.4c-5,0-8.5,4.4-9.2,9.4H213.6z"/>
		</g>
		<g>
			<path fill="#FFFFFF" d="M287,150.7v-4.6c-3,2.9-6,5.1-11.4,5.1c-6.8,0-12.6-3.8-12.6-11v-0.1c0-7.9,6-11.7,14.3-11.7
				c4.3,0,6.7,0.6,9.7,1.5v-0.7c0-4.9-3.1-7.6-8.8-7.6c-4,0-7,0.9-10.2,2.2l-2.2-6.5c3.9-1.8,7.8-3,13.6-3
				c10.5,0,15.7,5.5,15.7,15.1v21.3H287z M287,135.6c-2-0.8-4.8-1.4-8-1.4c-5.1,0-8,2.1-8,5.5v0.1c0,3.4,2.9,5.3,6.7,5.3
				c5.4,0,9.3-3,9.3-7.5V135.6z"/>
			<path fill="#FFFFFF" d="M305,114.7h8v6.1c2-3.7,6.5-6.7,12.2-6.7c8.4,0,16.8,6.7,16.8,18.5v0.1c0,11.8-8.3,18.5-16.8,18.5
				c-5.9,0-10.2-3-12.2-6.3v16.7h-8V114.7z M333,132.8v-0.1c0-6.9-4.4-11.4-9.9-11.4c-5.5,0-10.1,4.6-10.1,11.4v0.1
				c0,6.9,4.6,11.4,10.1,11.4C328.7,144.2,333,139.8,333,132.8z"/>
			<path fill="#FFFFFF" d="M350,114.7h8v6.1c3-3.7,6.5-6.7,12.2-6.7c8.4,0,16.8,6.7,16.8,18.5v0.1c0,11.8-8.3,18.5-16.8,18.5
				c-5.9,0-9.2-3-12.2-6.3v16.7h-8V114.7z M378,132.8v-0.1c0-6.9-4.4-11.4-9.9-11.4c-5.5,0-10.1,4.6-10.1,11.4v0.1
				c0,6.9,4.6,11.4,10.1,11.4C373.7,144.2,378,139.8,378,132.8z"/>
		</g>
		<g>
			<path fill="#404040" d="M428,140.7v-19h-4v-7h4v-10h8v10h10v7h-10v17.7c0,3.2,1.9,4.5,4.7,4.5c1.8,0,3.3-0.4,5.3-1.2v6.7
				c-2,1.1-4.5,1.8-7.5,1.8C432.4,151.2,428,148.5,428,140.7z"/>
			<path fill="#404040" d="M454,114.7h8v8.2c2-5.3,7-9,13-8.7v8.5h-0.6c-7.2,0-12.4,4.8-12.4,14.2v13.8h-8V114.7z"/>
			<path fill="#404040" d="M504,150.7v-4.6c-3,2.9-6,5.1-11.4,5.1c-6.8,0-12.6-3.8-12.6-11v-0.1c0-7.9,6-11.7,14.3-11.7
				c4.3,0,6.7,0.6,9.7,1.5v-0.7c0-4.9-3.2-7.6-8.9-7.6c-4,0-7,0.9-10.2,2.2l-2.2-6.5c3.9-1.8,7.8-3,13.6-3
				c10.5,0,15.7,5.5,15.7,15.1v21.3H504z M504,135.6c-2-0.8-4.8-1.4-8-1.4c-5.1,0-8,2.1-8,5.5v0.1c0,3.4,2.9,5.3,6.7,5.3
				c5.4,0,9.3-3,9.3-7.5V135.6z"/>
			<path fill="#404040" d="M520,132.9v-0.1c0-10.1,7.6-18.6,18.3-18.6c6.8,0,10.8,2.5,14.1,6.1l-5.1,5.5c-2.5-2.6-5-4.5-9.2-4.5
				c-5.9,0-10.2,5.1-10.2,11.3v0.1c0,6.3,4.3,11.5,10.6,11.5c3.8,0,6.6-1.8,9.2-4.5l4.9,4.9c-3.5,3.9-7.5,6.7-14.4,6.7
				C527.7,151.4,520,143.1,520,132.9z"/>
			<path fill="#404040" d="M560,101.7h8v29l15.1-16h9.9l-14.2,14.7l14.6,21.3H584l-10.9-15.5l-5.1,5.1v10.4h-8V101.7z"/>
			<path fill="#404040" d="M600,101.7h8v8h-8V101.7z M600,114.7h8v36h-8V114.7z"/>
			<path fill="#404040" d="M619,114.7h8v5.7c2-3.4,5.7-6.3,11.2-6.3c8,0,12.8,5.4,12.8,13.7v22.9h-8v-20.4c0-5.5-2.9-8.7-7.8-8.7
				c-4.7,0-8.2,3.3-8.2,8.8v20.3h-8V114.7z"/>
			<path fill="#404040" d="M660.5,157.2l3-6.1c3.8,2.4,7.6,3.8,12.4,3.8c7.3,0,11-3.8,11-10.9v-2.8c-2,3.8-6.3,6.5-12.2,6.5
				c-8.4,0-15.8-6.2-15.8-16.7v-0.1c0-10.5,7.6-16.7,15.9-16.7c6,0,10.1,2.8,12.1,6.1v-5.5h9v28.5c0,6-1.8,10.5-4.7,13.4
				c-3.2,3.2-8.3,4.8-14.7,4.8C670.7,161.5,665.1,160,660.5,157.2z M688,131v-0.1c0-5.9-5-9.9-10.7-9.9c-5.7,0-10.3,3.9-10.3,9.8
				v0.1c0,5.9,4.7,9.9,10.3,9.9C683,140.8,688,136.8,688,131z"/>
		</g>
	</g>
</g>
<g id="Guides">
</g>
<g id="FPO">
</g>
</svg>
