<svg version="1.1" id="Layer_1" xmlns="http://www.w3.org/2000/svg" xmlns:xlink="http://www.w3.org/1999/xlink" x="0px" y="0px"
   viewBox="156 346 300 100" enable-background="new 156 346 300 100" xml:space="preserve">
<g id="Content">
  <g>
    <g>
      <path fill="#007AFF" d="M381,430.1c-0.6,0-1.4,0.2-2.1,0.6v-3.2c0-0.2-0.2-0.3-0.3-0.3h-1.8c-0.2,0-0.3,0.2-0.3,0.3V438
        c0,0.2,0.2,0.3,0.3,0.3h1.7c0.2,0,0.3-0.1,0.3-0.3l0-0.2c0.6,0.5,1.3,0.7,2.1,0.7c2.5,0,4.1-1.7,4.1-4.2
        C385.1,431.7,383.5,430.1,381,430.1z M380.8,432.5c1,0,1.7,0.7,1.7,1.8c0,1-0.7,1.8-1.7,1.8c-0.9,0-1.8-0.6-1.8-1.8
        C379,433.3,379.8,432.5,380.8,432.5z"/>
      <path fill="#007AFF" d="M394.7,430.4c-0.1-0.1-0.2-0.2-0.3-0.2h-2c-0.1,0-0.3,0.1-0.3,0.2l-1.3,3.2l-0.4,1.1l-1.5-4.3
        c0-0.1-0.2-0.2-0.3-0.2h-2.1c-0.1,0-0.2,0-0.3,0.2c-0.1,0.1-0.1,0.2,0,0.3l2.9,7.1l-1.3,3.1c0,0.1,0,0.2,0,0.3
        c0.1,0.1,0.2,0.2,0.3,0.2h2c0.1,0,0.3-0.1,0.3-0.2l4.5-10.4C394.8,430.6,394.8,430.5,394.7,430.4z"/>
      <path fill="#007AFF" d="M441.3,430.3c0-3.2-2.6-5.8-5.8-5.8c-3.2,0-5.8,2.6-5.8,5.8v7.6c0,0.2,0.2,0.4,0.4,0.4h2
        c0.2,0,0.4-0.2,0.4-0.4v-7.6c0-1.7,1.4-3.1,3.1-3.1s3.1,1.4,3.1,3.1v7.6c0,0.2,0.2,0.4,0.4,0.4h2c0.2,0,0.4-0.2,0.4-0.4V430.3
        L441.3,430.3z"/>
      <path fill="#007AFF" d="M400.9,424.9v2c0,0.2,0.2,0.4,0.4,0.4h3.7c0.2,0,0.4,0.2,0.4,0.4v10.2c0,0.2,0.2,0.4,0.4,0.4h2
        c0.2,0,0.4-0.2,0.4-0.4v-10.2c0-0.2,0.2-0.4,0.4-0.4h3.7c0.2,0,0.4-0.2,0.4-0.4v-2c0-0.2-0.2-0.4-0.4-0.4h-10.8
        C401.1,424.5,400.9,424.7,400.9,424.9z"/>
      <path fill="#007AFF" d="M415.3,432.5c0,3.2,2.6,5.8,5.8,5.8c3.2,0,5.8-2.6,5.8-5.8v-7.6c0-0.2-0.2-0.4-0.4-0.4h-2
        c-0.2,0-0.4,0.2-0.4,0.4v7.6c0,1.7-1.4,3.1-3.1,3.1s-3.1-1.4-3.1-3.1v-7.6c0-0.2-0.2-0.4-0.4-0.4h-2c-0.2,0-0.4,0.2-0.4,0.4
        V432.5L415.3,432.5z"/>
      <path fill="#007AFF" d="M449.8,427.3h5.4c0.2,0,0.4-0.2,0.4-0.4v-2c0-0.2-0.2-0.4-0.4-0.4h-5.5l0,0l0,0c-3.2,0-5.7,2.6-5.7,5.8
        v2.2c0,3.2,2.5,5.8,5.7,5.8l0,0l0,0h5.5c0.2,0,0.4-0.2,0.4-0.4v-2c0-0.2-0.2-0.4-0.4-0.4h-5.4c-1.4,0-2.6-0.9-2.9-2.3
        c0-0.3,0.1-0.5,0.4-0.5h8c0.2,0,0.4-0.2,0.4-0.4v-2c0-0.2-0.2-0.4-0.4-0.4h-8c-0.3,0-0.4-0.2-0.4-0.5
        C447.2,428.2,448.4,427.3,449.8,427.3z"/>
    </g>
    <path id="signal3" fill="#007AFF" d="M351.5,383.4h-3.7c0-17-13.8-30.7-30.7-30.7V349C336.1,349,351.5,364.4,351.5,383.4z"/>
    <path id="signal2" fill="#007AFF" d="M317.1,356.4c14.9,0,27.1,12.1,27.1,27.1h-3.7c0-12.9-10.5-23.3-23.3-23.3L317.1,356.4L317.1,356.4
      z"/>
    <path id="signal1" fill="#007AFF" d="M317.1,363.8c10.8,0,19.7,8.8,19.7,19.7h-3.7c0-8.8-7.2-16-16-16L317.1,363.8L317.1,363.8z"/>
    
      <linearGradient id="SVGID_4_" gradientUnits="userSpaceOnUse" x1="336.3343" y1="636.1291" x2="336.3343" y2="712.7686" gradientTransform="matrix(0.8793 0 0 -0.8793 0 997.8879)">
      <stop  offset="0" style="stop-color:#005AFF"/>
      <stop  offset="3.613961e-02" style="stop-color:#005DFF"/>
      <stop  offset="0.3914" style="stop-color:#0075FF"/>
      <stop  offset="0.7215" style="stop-color:#0083FF"/>
      <stop  offset="1" style="stop-color:#0088FF"/>
    </linearGradient>
    <path fill="url(#SVGID_4_)" d="M329.4,426.6v-43.2c0-6.8-5.5-12.3-12.3-12.3h-42.7c-6.8,0-12.3,5.5-12.3,12.3v43.2
      c0,6.8,5.5,12.3,12.3,12.3h42.7C323.9,438.9,329.4,433.4,329.4,426.6z"/>
    <g>
      <path fill="#404040" d="M155.8,398.6h3.5v2.3c1-1.4,2.3-2.6,4.7-2.6c2.2,0,3.8,1.1,4.6,2.7c1.3-1.6,2.9-2.7,5.2-2.7
        c3.4,0,5.4,2.1,5.4,5.9v9.8h-3.5v-8.7c0-2.5-1.1-3.8-3.1-3.8c-1.9,0-3.3,1.3-3.3,3.8v8.7h-3.5v-8.8c0-2.4-1.2-3.7-3.1-3.7
        s-3.3,1.5-3.3,3.8v8.6h-3.6V398.6z"/>
      <path fill="#404040" d="M182.3,406.3L182.3,406.3c0-4.4,3.5-8.1,8.2-8.1s8.2,3.6,8.2,8v0c0,4.4-3.5,8-8.2,8
        C185.7,414.3,182.3,410.7,182.3,406.3z M195.2,406.3L195.2,406.3c0-2.8-1.9-5-4.7-5c-2.8,0-4.6,2.2-4.6,4.9v0c0,2.7,1.9,5,4.7,5
        C193.3,411.2,195.2,409,195.2,406.3z"/>
      <path fill="#404040" d="M205.5,411.6v2.4H202v-21.3h3.5v8.5c1.1-1.6,2.7-2.9,5.2-2.9c3.6,0,7.2,2.9,7.2,8v0c0,5.1-3.5,8-7.2,8
        C208.2,414.2,206.6,413,205.5,411.6z M214.3,406.3L214.3,406.3c0-3-2-5-4.4-5c-2.4,0-4.5,2-4.5,4.9v0c0,3,2.1,4.9,4.5,4.9
        C212.3,411.2,214.3,409.3,214.3,406.3z"/>
      <path fill="#404040" d="M221.3,392.9h3.8v3.4h-3.8V392.9z M221.4,398.6h3.5v15.4h-3.5V398.6z"/>
      <path fill="#404040" d="M229.4,392.7h3.5v21.2h-3.5V392.7z"/>
      <path fill="#404040" d="M236.4,406.3L236.4,406.3c0-4.4,3.1-8.1,7.5-8.1c4.9,0,7.4,3.8,7.4,8.3c0,0.3,0,0.6,0,1h-11.3
        c0.4,2.5,2.2,3.9,4.4,3.9c1.7,0,2.9-0.6,4.1-1.8l2.1,1.8c-1.5,1.7-3.5,2.9-6.3,2.9C239.9,414.3,236.4,411.1,236.4,406.3z
         M247.8,405.2c-0.2-2.3-1.6-4.1-3.9-4.1c-2.2,0-3.7,1.6-4,4.1H247.8z"/>
    </g>
    <g>
      <path fill="#FFFFFF" d="M279.4,413.9V412c-1,1.3-2.6,2.2-5,2.2c-2.9,0-5.5-1.6-5.5-4.7v0c0-3.4,2.6-5,6.2-5
        c1.9,0,3.1,0.3,4.2,0.6v-0.3c0-2.1-1.3-3.3-3.8-3.3c-1.7,0-3,0.4-4.4,0.9l-0.9-2.8c1.7-0.8,3.4-1.3,5.9-1.3
        c4.5,0,6.8,2.4,6.8,6.5v9.1H279.4z M279.5,407.5c-0.9-0.3-2.2-0.6-3.5-0.6c-2.2,0-3.5,0.9-3.5,2.4v0c0,1.5,1.3,2.3,3,2.3
        c2.3,0,4.1-1.3,4.1-3.2L279.5,407.5L279.5,407.5z"/>
      <path fill="#FFFFFF" d="M287.1,398.6h3.5v2.5c1.1-1.6,2.7-2.9,5.2-2.9c3.6,0,7.2,2.9,7.2,8v0c0,5.1-3.5,8-7.2,8
        c-2.5,0-4.1-1.3-5.2-2.7v7h-3.5V398.6z M299.4,406.3L299.4,406.3c0-3-2-5-4.4-5c-2.4,0-4.5,2-4.5,4.9v0c0,3,2.1,4.9,4.5,4.9
        C297.4,411.2,299.4,409.3,299.4,406.3z"/>
      <path fill="#FFFFFF" d="M306.6,398.6h3.5v2.5c1.1-1.6,2.7-2.9,5.2-2.9c3.6,0,7.2,2.9,7.2,8v0c0,5.1-3.5,8-7.2,8
        c-2.5,0-4.1-1.3-5.2-2.7v7h-3.5V398.6z M318.9,406.3L318.9,406.3c0-3-2-5-4.4-5c-2.4,0-4.5,2-4.5,4.9v0c0,3,2.1,4.9,4.5,4.9
        C316.9,411.2,318.9,409.3,318.9,406.3z"/>
    </g>
    <g>
      <path fill="#404040" d="M340.3,409.7v-8.1h-1.9v-3h1.9v-4.2h3.5v4.2h4.1v3h-4.1v7.6c0,1.4,0.7,1.9,1.9,1.9c0.8,0,1.5-0.2,2.2-0.5
        v2.9c-0.9,0.5-1.9,0.8-3.2,0.8C342.1,414.2,340.3,413.1,340.3,409.7z"/>
      <path fill="#404040" d="M351.5,398.6h3.5v3.5c0.9-2.3,2.7-3.9,5.4-3.8v3.7h-0.2c-3.1,0-5.2,2-5.2,6.1v5.9h-3.5V398.6z"/>
      <path fill="#404040" d="M372.9,413.9V412c-1,1.3-2.6,2.2-5,2.2c-2.9,0-5.5-1.6-5.5-4.7v0c0-3.4,2.6-5,6.2-5
        c1.9,0,3.1,0.3,4.2,0.6v-0.3c0-2.1-1.3-3.3-3.8-3.3c-1.7,0-3,0.4-4.4,0.9l-0.9-2.8c1.7-0.8,3.4-1.3,5.9-1.3
        c4.5,0,6.8,2.4,6.8,6.5v9.1H372.9z M373,407.5c-0.9-0.3-2.2-0.6-3.5-0.6c-2.2,0-3.5,0.9-3.5,2.4v0c0,1.5,1.3,2.3,3,2.3
        c2.3,0,4.1-1.3,4.1-3.2L373,407.5L373,407.5z"/>
      <path fill="#404040" d="M379.8,406.3L379.8,406.3c0-4.4,3.4-8.1,8-8.1c2.9,0,4.7,1.1,6.1,2.6l-2.2,2.4c-1.1-1.1-2.2-1.9-4-1.9
        c-2.5,0-4.4,2.2-4.4,4.9v0c0,2.7,1.9,5,4.6,5c1.6,0,2.9-0.8,4-1.9l2.1,2.1c-1.5,1.7-3.3,2.9-6.3,2.9
        C383.2,414.3,379.8,410.7,379.8,406.3z"/>
      <path fill="#404040" d="M397.2,392.7h3.5v12.7l6.4-6.8h4.3l-6.1,6.3l6.3,9.1h-4.1l-4.6-6.6l-2.2,2.2v4.4h-3.5L397.2,392.7
        L397.2,392.7z"/>
      <path fill="#404040" d="M414.2,392.9h3.8v3.4h-3.8V392.9z M414.4,398.6h3.5v15.4h-3.5V398.6z"/>
      <path fill="#404040" d="M422.5,398.6h3.5v2.4c1-1.5,2.4-2.7,4.8-2.7c3.5,0,5.5,2.3,5.5,5.9v9.8h-3.5v-8.7c0-2.4-1.2-3.8-3.3-3.8
        c-2,0-3.5,1.4-3.5,3.8v8.7h-3.5V398.6z"/>
      <path fill="#404040" d="M440.6,416.8l1.3-2.6c1.6,1,3.4,1.6,5.5,1.6c3.2,0,4.9-1.6,4.9-4.7v-1.2c-1.3,1.6-2.9,2.8-5.4,2.8
        c-3.6,0-7-2.7-7-7.2v0c0-4.5,3.4-7.2,7-7.2c2.6,0,4.2,1.2,5.4,2.6v-2.3h3.5v12.2c0,2.6-0.7,4.5-1.9,5.8c-1.4,1.4-3.5,2.1-6.3,2.1
        C444.9,418.6,442.5,418,440.6,416.8z M452.2,405.5L452.2,405.5c0-2.6-2.1-4.3-4.5-4.3s-4.4,1.7-4.4,4.2v0c0,2.5,1.9,4.3,4.4,4.3
        C450.1,409.8,452.2,408,452.2,405.5z"/>
    </g>
  </g>
</g>
<g id="Guides">
</g>
<g id="FPO">
</g>
</svg>