<?xml version="1.0" encoding="utf-8"?>
<!-- Generator: Adobe Illustrator 17.1.0, SVG Export Plug-In . SVG Version: 6.00 Build 0)  -->
<!DOCTYPE svg PUBLIC "-//W3C//DTD SVG 1.1//EN" "http://www.w3.org/Graphics/SVG/1.1/DTD/svg11.dtd">
<svg version="1.1" xmlns="http://www.w3.org/2000/svg" xmlns:xlink="http://www.w3.org/1999/xlink" x="0px" y="0px"
	 viewBox="0 0 716 180" enable-background="new 0 0 716 180" xml:space="preserve">
<g id="Content">
	<g>
		<linearGradient id="SVGID_1_" gradientUnits="userSpaceOnUse" x1="452" y1="180" x2="452" y2="0">
			<stop  offset="0" style="stop-color:#005AFF"/>
			<stop  offset="1" style="stop-color:#0088FF"/>
		</linearGradient>
		<path fill="url(#SVGID_1_)" d="M528,76c0-41.9-34.1-76-76-76c-41.9,0-76,34.1-76,76v99c0,2.8,2.2,5,5,5h26c2.8,0,5-2.2,5-5V76
			c0-22.1,17.9-40,40-40s40,17.9,40,40v99c0,2.8,2.2,5,5,5h26c2.8,0,5-2.2,5-5L528,76L528,76z"/>
		<linearGradient id="SVGID_2_" gradientUnits="userSpaceOnUse" x1="76" y1="180" x2="76" y2="-3.186869e-09">
			<stop  offset="0" style="stop-color:#005AFF"/>
			<stop  offset="1" style="stop-color:#0088FF"/>
		</linearGradient>
		<path fill="url(#SVGID_2_)" d="M0,5v26c0,2.8,2.2,5,5,5h48c2.8,0,5,2.2,5,5v134c0,2.8,2.2,5,5,5h26c2.8,0,5-2.2,5-5V41
			c0-2.8,2.2-5,5-5h48c2.8,0,5-2.2,5-5V5c0-2.8-2.2-5-5-5H5C2.2,0,0,2.2,0,5z"/>
		<linearGradient id="SVGID_3_" gradientUnits="userSpaceOnUse" x1="264" y1="180" x2="264" y2="-3.186869e-09">
			<stop  offset="0" style="stop-color:#005AFF"/>
			<stop  offset="1" style="stop-color:#0088FF"/>
		</linearGradient>
		<path fill="url(#SVGID_3_)" d="M188,104c0,41.9,34.1,76,76,76c41.9,0,76-34.1,76-76V5c0-2.8-2.2-5-5-5h-26c-2.8,0-5,2.2-5,5v99
			c0,22.1-17.9,40-40,40s-40-17.9-40-40V5c0-2.8-2.2-5-5-5h-26c-2.8,0-5,2.2-5,5L188,104L188,104z"/>
		<linearGradient id="SVGID_4_" gradientUnits="userSpaceOnUse" x1="640" y1="180" x2="640" y2="-3.188688e-09">
			<stop  offset="0" style="stop-color:#005AFF"/>
			<stop  offset="1" style="stop-color:#0088FF"/>
		</linearGradient>
		<path fill="url(#SVGID_4_)" d="M640,36h71c2.8,0,5-2.2,5-5V5c0-2.8-2.2-5-5-5h-72v0v0c-41.5,0.5-75,34.3-75,76v28
			c0,41.6,33.5,75.4,75,76v0v0h72c2.8,0,5-2.2,5-5v-26c0-2.8-2.2-5-5-5h-71c-18.6,0-34.2-12.6-38.7-29.8c-0.8-3.1,1.6-6.2,4.9-6.2
			H711c2.8,0,5-2.2,5-5V77c0-2.8-2.2-5-5-5H606.2c-3.3,0-5.7-3.1-4.9-6.2C605.8,48.6,621.5,36,640,36z"/>
	</g>
</g>
<g id="Guides">
</g>
<g id="FPO">
</g>
</svg>
